<svg id="Livello_3" data-name="Livello 3" xmlns="http://www.w3.org/2000/svg" viewBox="0 0 567.61 567.61"><defs><style>.cls-1{fill:#1d1d1b;}.cls-2{fill:#fff;}.cls-3{fill:#c4a962;}</style></defs><rect class="cls-1" width="567.61" height="567.61"/><circle class="cls-2" cx="121.72" cy="247.78" r="3.9"/><circle class="cls-2" cx="268.03" cy="147.15" r="3.9"/><circle class="cls-2" cx="251.99" cy="150.07" r="3.9"/><circle class="cls-2" cx="405.33" cy="318.93" r="5.46"/><circle class="cls-2" cx="338.94" cy="431.3" r="5.46"/><circle class="cls-2" cx="420.51" cy="372.79" r="5.46"/><circle class="cls-2" cx="318.87" cy="129.46" r="3.9"/><circle class="cls-2" cx="324.21" cy="148.28" r="3.9"/><circle class="cls-2" cx="417.15" cy="186.64" r="3.9"/><circle class="cls-2" cx="401.02" cy="172.87" r="2.99"/><circle class="cls-2" cx="306.25" cy="145.38" r="2.99"/><circle class="cls-2" cx="249.89" cy="183.29" r="2.11"/><circle class="cls-2" cx="239.18" cy="191.65" r="2.11"/><circle class="cls-2" cx="160.12" cy="209.12" r="2.11"/><circle class="cls-2" cx="256.33" cy="270.41" r="2.11"/><circle class="cls-2" cx="289.99" cy="159.05" r="2.11"/><circle class="cls-2" cx="263" cy="176.23" r="2.11"/><circle class="cls-2" cx="231.98" cy="301.06" r="2.11"/><circle class="cls-2" cx="248.3" cy="301.78" r="2.11"/><circle class="cls-2" cx="413.88" cy="358.64" r="2.11"/><circle class="cls-2" cx="137.14" cy="291.41" r="2.11"/><circle class="cls-2" cx="251.61" cy="399.56" r="2.11"/><circle class="cls-2" cx="255.84" cy="240.29" r="2.11"/><circle class="cls-2" cx="355.23" cy="160.17" r="2.11"/><circle class="cls-2" cx="217.45" cy="285.24" r="2.51"/><circle class="cls-2" cx="228.93" cy="202.46" r="2.51"/><circle class="cls-2" cx="239.01" cy="262.39" r="2.51"/><circle class="cls-2" cx="141.12" cy="305.45" r="2.51"/><circle class="cls-2" cx="153.17" cy="388.32" r="2.51"/><circle class="cls-2" cx="153.6" cy="220.44" r="2.51"/><circle class="cls-2" cx="268.52" cy="400.54" r="2.51"/><circle class="cls-2" cx="317.33" cy="260.82" r="2.51"/><circle class="cls-2" cx="324.82" cy="304.6" r="2.51"/><circle class="cls-2" cx="283.24" cy="331.16" r="2.51"/><circle class="cls-2" cx="254.33" cy="325.4" r="2.51"/><circle class="cls-2" cx="333.75" cy="249.8" r="2.51"/><circle class="cls-2" cx="307.26" cy="393.26" r="2.51"/><circle class="cls-2" cx="261.27" cy="230.92" r="2.51"/><circle class="cls-2" cx="260.32" cy="255.74" r="2.78"/><circle class="cls-2" cx="273.37" cy="161.56" r="2.78"/><circle class="cls-2" cx="213.68" cy="274.67" r="2.78"/><circle class="cls-2" cx="214.7" cy="225.31" r="2.78"/><circle class="cls-2" cx="220.89" cy="213.95" r="2.78"/><circle class="cls-2" cx="234.81" cy="287.75" r="2.78"/><circle class="cls-2" cx="417.42" cy="343.07" r="2.78"/><circle class="cls-2" cx="238.38" cy="251.33" r="2.78"/><circle class="cls-2" cx="149.76" cy="322.06" r="2.78"/><circle class="cls-2" cx="282.32" cy="217.58" r="2.78"/><circle class="cls-2" cx="372.06" cy="400.73" r="2.78"/><circle class="cls-2" cx="210.86" cy="263.69" r="3.33"/><circle class="cls-2" cx="210.86" cy="238.31" r="3.33"/><circle class="cls-2" cx="241.65" cy="241.03" r="3.33"/><circle class="cls-2" cx="322.98" cy="314.57" r="3.33"/><circle class="cls-2" cx="271.04" cy="336.38" r="3.33"/><circle class="cls-2" cx="170.5" cy="348.91" r="3.33"/><circle class="cls-2" cx="147.8" cy="237.12" r="3.33"/><circle class="cls-2" cx="158.8" cy="336" r="3.33"/><circle class="cls-2" cx="347.42" cy="362.51" r="3.33"/><circle class="cls-2" cx="336.18" cy="374.72" r="3.33"/><circle class="cls-2" cx="188.17" cy="414.47" r="3.33"/><circle class="cls-2" cx="296.23" cy="212.62" r="3.33"/><circle class="cls-2" cx="271.62" cy="242.28" r="3.33"/><circle class="cls-2" cx="226.28" cy="268.76" r="3.33"/><circle class="cls-2" cx="255.84" cy="165.78" r="3.33"/><circle class="cls-2" cx="325.64" cy="212.29" r="3.33"/><circle class="cls-2" cx="385.18" cy="385.03" r="3.33"/><circle class="cls-2" cx="279.54" cy="236.34" r="3.89"/><circle class="cls-2" cx="351.85" cy="268.92" r="3.89"/><circle class="cls-2" cx="332.5" cy="275.68" r="3.89"/><circle class="cls-2" cx="257.39" cy="339.04" r="3.89"/><circle class="cls-2" cx="285.02" cy="441.3" r="3.89"/><circle class="cls-2" cx="233.96" cy="436.12" r="3.89"/><circle class="cls-2" cx="230.23" cy="317.4" r="3.89"/><circle class="cls-2" cx="200.72" cy="371.35" r="3.89"/><circle class="cls-2" cx="169.71" cy="403.45" r="3.89"/><circle class="cls-2" cx="146.96" cy="272.06" r="3.89"/><circle class="cls-2" cx="184.92" cy="360.62" r="3.89"/><circle class="cls-2" cx="145.68" cy="257.1" r="3.89"/><circle class="cls-2" cx="363.91" cy="314.4" r="3.89"/><circle class="cls-2" cx="361.31" cy="332.18" r="3.89"/><circle class="cls-2" cx="265.51" cy="211.05" r="3.89"/><circle class="cls-2" cx="421.19" cy="327.81" r="3.89"/><circle class="cls-2" cx="402.61" cy="295.25" r="3.89"/><circle class="cls-2" cx="394.48" cy="365.13" r="3.89"/><circle class="cls-2" cx="356.28" cy="225.33" r="3.89"/><circle class="cls-2" cx="383.15" cy="251.22" r="3.89"/><circle class="cls-2" cx="225.15" cy="243.4" r="4.38"/><circle class="cls-2" cx="203.47" cy="213.95" r="4.38"/><circle class="cls-2" cx="122.91" cy="305.64" r="4.38"/><circle class="cls-2" cx="226.28" cy="335.47" r="5.24"/><circle class="cls-2" cx="218.56" cy="310.09" r="5.24"/><circle class="cls-2" cx="198.41" cy="283.72" r="5.24"/><circle class="cls-2" cx="193.37" cy="249.1" r="5.24"/><circle class="cls-2" cx="150.03" cy="286.81" r="5.24"/><circle class="cls-2" cx="290.49" cy="352.78" r="5.24"/><circle class="cls-2" cx="237.74" cy="382.94" r="5.24"/><circle class="cls-2" cx="210.16" cy="427.25" r="5.24"/><circle class="cls-2" cx="363.03" cy="297.46" r="4.38"/><circle class="cls-2" cx="312.39" cy="228.37" r="4.38"/><circle class="cls-2" cx="247" cy="203.79" r="4.82"/><circle class="cls-2" cx="228.93" cy="229.29" r="4.82"/><circle class="cls-2" cx="277.5" cy="202.95" r="4.82"/><circle class="cls-2" cx="226.18" cy="185.9" r="4.82"/><circle class="cls-2" cx="421.65" cy="305.5" r="5.49"/><circle class="cls-2" cx="351.31" cy="242.55" r="5.49"/><circle class="cls-2" cx="258.98" cy="192.78" r="5.49"/><circle class="cls-2" cx="332.48" cy="169.21" r="6.92"/><circle class="cls-2" cx="311.76" cy="169.91" r="5.49"/><circle class="cls-2" cx="383.67" cy="157.2" r="5.94"/><circle class="cls-2" cx="363.51" cy="254.66" r="5.99"/><circle class="cls-2" cx="401.01" cy="241.1" r="7.07"/><circle class="cls-2" cx="374.56" cy="268.92" r="5.99"/><circle class="cls-2" cx="323.45" cy="407.12" r="7.13"/><circle class="cls-2" cx="248.69" cy="414.47" r="7.13"/><circle class="cls-2" cx="338.13" cy="335.37" r="6.4"/><circle class="cls-2" cx="274.72" cy="358.39" r="6.4"/><circle class="cls-2" cx="195.84" cy="316.54" r="6.4"/><circle class="cls-2" cx="182.77" cy="300.34" r="7.82"/><circle class="cls-2" cx="172.25" cy="229.29" r="8.21"/><circle class="cls-2" cx="197.77" cy="185.3" r="8.21"/><circle class="cls-2" cx="236.86" cy="360.27" r="6.4"/><circle class="cls-2" cx="198.92" cy="347.47" r="6.4"/><circle class="cls-2" cx="316.15" cy="365.13" r="6.4"/><circle class="cls-2" cx="277.84" cy="382.61" r="6.4"/><circle class="cls-2" cx="260.94" cy="441.3" r="6.4"/><circle class="cls-2" cx="258" cy="385.14" r="6.4"/><circle class="cls-2" cx="363.18" cy="376.04" r="7.13"/><circle class="cls-2" cx="363.03" cy="420.51" r="9.05"/><circle class="cls-2" cx="430.55" cy="236.34" r="9.05"/><circle class="cls-2" cx="206.66" cy="147.12" r="9.05"/><circle class="cls-2" cx="251.43" cy="129.61" r="7.68"/><circle class="cls-2" cx="441.89" cy="291.09" r="9.05"/><circle class="cls-2" cx="302.33" cy="255.35" r="2.11"/><circle class="cls-2" cx="318.76" cy="278.92" r="2.11"/><circle class="cls-2" cx="303.93" cy="308.05" r="2.11"/><circle class="cls-2" cx="255.36" cy="305.56" r="2.11"/><circle class="cls-2" cx="298.4" cy="315.16" r="2.11"/><circle class="cls-2" cx="265.51" cy="323.87" r="2.11"/><circle class="cls-2" cx="294.21" cy="241.62" r="2.11"/><circle class="cls-2" cx="294.71" cy="255.35" r="2.11"/><circle class="cls-2" cx="280.74" cy="247.43" r="1.49"/><circle class="cls-2" cx="287.71" cy="256.25" r="1.49"/><circle class="cls-2" cx="274.78" cy="250.65" r="0.77"/><circle class="cls-2" cx="276.4" cy="261.09" r="0.77"/><circle class="cls-2" cx="272.69" cy="264.57" r="0.77"/><circle class="cls-2" cx="261.53" cy="292.26" r="0.77"/><circle class="cls-2" cx="304.44" cy="266.03" r="0.9"/><circle class="cls-2" cx="307.11" cy="289.71" r="0.9"/><circle class="cls-2" cx="273.63" cy="308.18" r="0.9"/><circle class="cls-2" cx="258.91" cy="288.27" r="0.9"/><circle class="cls-2" cx="246.12" cy="285.86" r="0.9"/><circle class="cls-2" cx="248.63" cy="259.48" r="0.9"/><circle class="cls-2" cx="249.84" cy="312.81" r="0.9"/><circle class="cls-2" cx="282.34" cy="319.4" r="0.9"/><circle class="cls-2" cx="309.31" cy="269.24" r="1.13"/><circle class="cls-2" cx="307.48" cy="294.59" r="1.13"/><circle class="cls-2" cx="267.95" cy="308.18" r="1.13"/><circle class="cls-2" cx="257.14" cy="283.32" r="1.13"/><circle class="cls-2" cx="306.58" cy="301.32" r="1.58"/><circle class="cls-2" cx="256.21" cy="277.36" r="1.58"/><circle class="cls-2" cx="240.29" cy="271.85" r="1.58"/><circle class="cls-2" cx="251.77" cy="247.43" r="1.58"/><circle class="cls-2" cx="240.87" cy="309.62" r="1.58"/><circle class="cls-2" cx="275.21" cy="322.29" r="1.58"/><circle class="cls-2" cx="298.57" cy="264.06" r="0.77"/><circle class="cls-2" cx="305.82" cy="284.38" r="0.77"/><circle class="cls-2" cx="288.88" cy="315.53" r="0.77"/><circle class="cls-2" cx="303.27" cy="240.9" r="2.11"/><circle class="cls-2" cx="324.58" cy="294.05" r="2.11"/><circle class="cls-2" cx="291.89" cy="322.85" r="2.11"/><circle class="cls-3" cx="283.24" cy="283.32" r="11.47"/><circle class="cls-2" cx="383.65" cy="330.02" r="9.05"/><circle class="cls-2" cx="342.71" cy="301.8" r="5.24"/><circle class="cls-2" cx="228.97" cy="137.91" r="3.9"/><circle class="cls-2" cx="273.66" cy="128.25" r="3.9"/><circle class="cls-2" cx="247.02" cy="229.89" r="3.33"/><circle class="cls-2" cx="241.54" cy="339.04" r="3.89"/><circle class="cls-2" cx="289.66" cy="231.8" r="3.89"/><circle class="cls-2" cx="157.11" cy="303.67" r="5.24"/><circle class="cls-2" cx="337.87" cy="234.83" r="5.49"/><circle class="cls-2" cx="292.25" cy="196.91" r="5.49"/><circle class="cls-2" cx="413.08" cy="213.53" r="7.53"/><circle class="cls-2" cx="352.89" cy="172.67" r="6.92"/><circle class="cls-2" cx="340.93" cy="135.09" r="5.49"/><circle class="cls-2" cx="373.59" cy="181.14" r="5.94"/><circle class="cls-2" cx="236.75" cy="215.55" r="5.99"/><circle class="cls-2" cx="345.77" cy="197.61" r="6.74"/><circle class="cls-2" cx="413.65" cy="262.82" r="6.74"/><circle class="cls-2" cx="384.91" cy="222.7" r="7.07"/><circle class="cls-2" cx="235.1" cy="157.75" r="7.09"/><circle class="cls-2" cx="292.5" cy="174.75" r="6.15"/><circle class="cls-2" cx="380.74" cy="285.78" r="7.13"/><circle class="cls-2" cx="342.32" cy="317.6" r="7.13"/><circle class="cls-2" cx="297.7" cy="375.66" r="7.13"/><circle class="cls-2" cx="201.87" cy="396.47" r="7.13"/><circle class="cls-2" cx="182.77" cy="336.38" r="7.13"/><circle class="cls-2" cx="193.37" cy="267.01" r="6.4"/><circle class="cls-2" cx="132.28" cy="329.46" r="7.82"/><circle class="cls-2" cx="172.25" cy="278.53" r="7.82"/><circle class="cls-2" cx="134.96" cy="218.1" r="8.21"/><circle class="cls-2" cx="181.55" cy="206.06" r="8.21"/><circle class="cls-2" cx="165.54" cy="176.38" r="8.21"/><circle class="cls-2" cx="217.06" cy="355.51" r="6.4"/><circle class="cls-2" cx="329.72" cy="351.39" r="6.4"/><circle class="cls-2" cx="403.43" cy="389.03" r="7.13"/><circle class="cls-2" cx="432.47" cy="345.27" r="7.13"/><circle class="cls-2" cx="376.46" cy="354.1" r="9.05"/><circle class="cls-2" cx="345.12" cy="394.53" r="9.05"/><circle class="cls-2" cx="273" cy="415.89" r="9.05"/><circle class="cls-2" cx="161.67" cy="367.13" r="9.05"/><circle class="cls-2" cx="311.92" cy="438.75" r="9.05"/><circle class="cls-2" cx="257.39" cy="262.68" r="2.51"/><circle class="cls-2" cx="241.49" cy="295.57" r="2.51"/><circle class="cls-2" cx="312.39" cy="242.03" r="2.51"/><circle class="cls-2" cx="270.82" cy="223.19" r="2.78"/><circle class="cls-2" cx="312.11" cy="335.37" r="3.89"/><circle class="cls-2" cx="321.74" cy="286.1" r="2.11"/><circle class="cls-2" cx="287.09" cy="244.01" r="2.11"/><circle class="cls-2" cx="281.66" cy="258.42" r="1.49"/><circle class="cls-2" cx="242.62" cy="279.92" r="1.13"/><circle class="cls-2" cx="249.35" cy="253.51" r="1.13"/><circle class="cls-2" cx="314.34" cy="273.61" r="1.58"/><circle class="cls-2" cx="261.88" cy="307.28" r="1.58"/><circle class="cls-2" cx="279.54" cy="308.18" r="0.77"/><circle class="cls-2" cx="309.65" cy="257.46" r="2.11"/><circle class="cls-2" cx="265.72" cy="248.83" r="3.33"/><circle class="cls-2" cx="216.36" cy="170.37" r="5.46"/><circle class="cls-2" cx="186.41" cy="161.56" r="5.46"/><circle class="cls-2" cx="402.61" cy="343.07" r="5.46"/><circle class="cls-2" cx="387.45" cy="407.94" r="5.46"/><circle class="cls-2" cx="441.09" cy="318.1" r="5.46"/><circle class="cls-2" cx="362.62" cy="145.53" r="3.9"/><circle class="cls-2" cx="340.93" cy="153.89" r="2.11"/><circle class="cls-2" cx="223.31" cy="293.98" r="2.51"/><circle class="cls-2" cx="322.78" cy="244.45" r="2.51"/><circle class="cls-2" cx="290.05" cy="398.74" r="2.51"/><circle class="cls-2" cx="229.41" cy="278.79" r="3.33"/><circle class="cls-2" cx="343.42" cy="258.46" r="3.33"/><circle class="cls-2" cx="325.64" cy="266.33" r="3.33"/><circle class="cls-2" cx="242.06" cy="322.85" r="3.33"/><circle class="cls-2" cx="322.12" cy="386.08" r="3.33"/><circle class="cls-2" cx="209.59" cy="250.7" r="3.33"/><circle class="cls-2" cx="393.73" cy="267.95" r="3.33"/><circle class="cls-2" cx="310.38" cy="211.05" r="3.33"/><circle class="cls-2" cx="224.13" cy="256.56" r="3.89"/><circle class="cls-2" cx="255.26" cy="218.95" r="3.89"/><circle class="cls-2" cx="240.09" cy="174.75" r="3.89"/><circle class="cls-2" cx="319.09" cy="325.4" r="3.89"/><circle class="cls-2" cx="354.76" cy="348.49" r="3.89"/><circle class="cls-2" cx="341.45" cy="216.52" r="3.89"/><circle class="cls-2" cx="370.38" cy="236.73" r="3.89"/><circle class="cls-2" cx="300.72" cy="228.79" r="4.38"/><circle class="cls-2" cx="213.31" cy="199.13" r="4.38"/><circle class="cls-2" cx="358.83" cy="282.07" r="4.38"/><circle class="cls-2" cx="338.74" cy="287.25" r="5.24"/><circle class="cls-2" cx="302.71" cy="344.37" r="5.24"/><circle class="cls-2" cx="218.56" cy="378.68" r="5.24"/><circle class="cls-2" cx="209.34" cy="327.88" r="5.24"/><circle class="cls-2" cx="324.72" cy="229.88" r="4.82"/><circle class="cls-2" cx="196.66" cy="231.36" r="4.82"/><circle class="cls-2" cx="148.3" cy="198.03" r="4.82"/><circle class="cls-2" cx="394.48" cy="193.47" r="6.92"/><circle class="cls-2" cx="326.66" cy="193.47" r="5.49"/><circle class="cls-2" cx="419.13" cy="282.07" r="5.49"/><circle class="cls-2" cx="441.09" cy="262.21" r="5.49"/><circle class="cls-2" cx="365.43" cy="207.79" r="7.07"/><circle class="cls-2" cx="309.47" cy="193.85" r="5.99"/><circle class="cls-2" cx="275.19" cy="182.96" r="7.09"/><circle class="cls-2" cx="296.23" cy="124.48" r="6.15"/><circle class="cls-2" cx="225.58" cy="407.22" r="7.13"/><circle class="cls-2" cx="206.6" cy="297.82" r="6.4"/><circle class="cls-2" cx="168.55" cy="254" r="7.82"/><circle class="cls-2" cx="121.66" cy="277.34" r="7.82"/><circle class="cls-2" cx="286.48" cy="144.08" r="6.34"/><circle class="cls-2" cx="256.35" cy="361.15" r="6.4"/><circle class="cls-2" cx="180.76" cy="383.05" r="6.4"/><circle class="cls-2" cx="144.01" cy="349.56" r="6.4"/><circle class="cls-2" cx="169.25" cy="321.35" r="6.4"/><circle class="cls-2" cx="384.35" cy="307.11" r="7.13"/><circle class="cls-2" cx="298.39" cy="414.02" r="7.66"/><circle class="cls-2" cx="476.13" cy="185.9" r="2.99"/><circle class="cls-2" cx="134.39" cy="380.79" r="2.11"/><circle class="cls-2" cx="116.95" cy="387.01" r="3.89"/><circle class="cls-2" cx="455.66" cy="199.28" r="5.49"/><circle class="cls-2" cx="103.35" cy="404.54" r="5.53"/><circle class="cls-2" cx="436.89" cy="197.61" r="2.99"/></svg>