<svg id="Livello_1" data-name="Livello 1" xmlns="http://www.w3.org/2000/svg" viewBox="0 0 566.93 566.93"><defs><style>.cls-1{fill:#e6e8ec;}.cls-2{fill:#0e1d2d;}.cls-3{fill:#c4a962;}.cls-4{fill:#b0c6e8;}</style></defs><rect class="cls-1" width="566.93" height="566.93"/><circle class="cls-2" cx="121.04" cy="247.78" r="3.9"/><circle class="cls-2" cx="267.35" cy="147.15" r="3.9"/><circle class="cls-2" cx="251.31" cy="150.07" r="3.9"/><circle class="cls-2" cx="404.65" cy="318.93" r="5.46"/><circle class="cls-2" cx="338.26" cy="431.3" r="5.46"/><circle class="cls-2" cx="419.83" cy="372.79" r="5.46"/><circle class="cls-2" cx="318.19" cy="129.46" r="3.9"/><circle class="cls-2" cx="323.53" cy="148.28" r="3.9"/><circle class="cls-2" cx="416.47" cy="186.64" r="3.9"/><circle class="cls-2" cx="400.34" cy="172.87" r="2.99"/><circle class="cls-2" cx="305.57" cy="145.38" r="2.99"/><circle class="cls-2" cx="249.21" cy="183.29" r="2.11"/><circle class="cls-2" cx="238.5" cy="191.65" r="2.11"/><circle class="cls-2" cx="159.44" cy="209.12" r="2.11"/><circle class="cls-2" cx="255.65" cy="270.41" r="2.11"/><circle class="cls-2" cx="289.31" cy="159.05" r="2.11"/><circle class="cls-2" cx="262.32" cy="176.23" r="2.11"/><circle class="cls-2" cx="231.3" cy="301.06" r="2.11"/><circle class="cls-2" cx="247.62" cy="301.78" r="2.11"/><circle class="cls-2" cx="413.2" cy="358.64" r="2.11"/><circle class="cls-2" cx="136.46" cy="291.41" r="2.11"/><circle class="cls-2" cx="250.93" cy="399.56" r="2.11"/><circle class="cls-2" cx="255.17" cy="240.29" r="2.11"/><circle class="cls-2" cx="354.56" cy="160.17" r="2.11"/><circle class="cls-2" cx="216.77" cy="285.24" r="2.51"/><circle class="cls-2" cx="228.26" cy="202.46" r="2.51"/><circle class="cls-2" cx="238.33" cy="262.39" r="2.51"/><circle class="cls-2" cx="140.45" cy="305.45" r="2.51"/><circle class="cls-2" cx="152.49" cy="388.32" r="2.51"/><circle class="cls-2" cx="152.93" cy="220.44" r="2.51"/><circle class="cls-2" cx="267.85" cy="400.54" r="2.51"/><circle class="cls-2" cx="316.65" cy="260.82" r="2.51"/><circle class="cls-2" cx="324.14" cy="304.6" r="2.51"/><circle class="cls-2" cx="282.56" cy="331.16" r="2.51"/><circle class="cls-2" cx="253.66" cy="325.4" r="2.51"/><circle class="cls-2" cx="333.07" cy="249.8" r="2.51"/><circle class="cls-2" cx="306.59" cy="393.26" r="2.51"/><circle class="cls-2" cx="260.59" cy="230.92" r="2.51"/><circle class="cls-2" cx="259.65" cy="255.74" r="2.78"/><circle class="cls-2" cx="272.69" cy="161.56" r="2.78"/><circle class="cls-2" cx="213" cy="274.67" r="2.78"/><circle class="cls-2" cx="214.03" cy="225.31" r="2.78"/><circle class="cls-2" cx="220.21" cy="213.95" r="2.78"/><circle class="cls-2" cx="234.13" cy="287.75" r="2.78"/><circle class="cls-2" cx="416.74" cy="343.07" r="2.78"/><circle class="cls-2" cx="237.7" cy="251.33" r="2.78"/><circle class="cls-2" cx="149.08" cy="322.06" r="2.78"/><circle class="cls-2" cx="281.65" cy="217.58" r="2.78"/><circle class="cls-2" cx="371.38" cy="400.73" r="2.78"/><circle class="cls-2" cx="210.18" cy="263.69" r="3.33"/><circle class="cls-2" cx="210.18" cy="238.31" r="3.33"/><circle class="cls-2" cx="240.97" cy="241.03" r="3.33"/><circle class="cls-2" cx="322.31" cy="314.57" r="3.33"/><circle class="cls-2" cx="270.36" cy="336.38" r="3.33"/><circle class="cls-2" cx="169.83" cy="348.91" r="3.33"/><circle class="cls-2" cx="147.12" cy="237.12" r="3.33"/><circle class="cls-2" cx="158.12" cy="336" r="3.33"/><circle class="cls-2" cx="346.75" cy="362.51" r="3.33"/><circle class="cls-2" cx="335.5" cy="374.72" r="3.33"/><circle class="cls-2" cx="187.5" cy="414.47" r="3.33"/><circle class="cls-2" cx="295.55" cy="212.62" r="3.33"/><circle class="cls-2" cx="270.95" cy="242.28" r="3.33"/><circle class="cls-2" cx="225.61" cy="268.76" r="3.33"/><circle class="cls-2" cx="255.17" cy="165.78" r="3.33"/><circle class="cls-2" cx="324.97" cy="212.29" r="3.33"/><circle class="cls-2" cx="384.5" cy="385.03" r="3.33"/><circle class="cls-2" cx="278.86" cy="236.34" r="3.89"/><circle class="cls-2" cx="351.17" cy="268.92" r="3.89"/><circle class="cls-2" cx="331.82" cy="275.68" r="3.89"/><circle class="cls-2" cx="256.71" cy="339.04" r="3.89"/><circle class="cls-2" cx="284.34" cy="441.3" r="3.89"/><circle class="cls-2" cx="233.28" cy="436.12" r="3.89"/><circle class="cls-2" cx="229.55" cy="317.4" r="3.89"/><circle class="cls-2" cx="200.05" cy="371.35" r="3.89"/><circle class="cls-2" cx="169.03" cy="403.45" r="3.89"/><circle class="cls-2" cx="146.28" cy="272.06" r="3.89"/><circle class="cls-2" cx="184.24" cy="360.62" r="3.89"/><circle class="cls-2" cx="145" cy="257.1" r="3.89"/><circle class="cls-2" cx="363.23" cy="314.4" r="3.89"/><circle class="cls-2" cx="360.64" cy="332.18" r="3.89"/><circle class="cls-2" cx="264.83" cy="211.05" r="3.89"/><circle class="cls-2" cx="420.51" cy="327.81" r="3.89"/><circle class="cls-2" cx="401.93" cy="295.25" r="3.89"/><circle class="cls-2" cx="393.81" cy="365.13" r="3.89"/><circle class="cls-2" cx="355.6" cy="225.33" r="3.89"/><circle class="cls-2" cx="382.48" cy="251.22" r="3.89"/><circle class="cls-2" cx="224.47" cy="243.4" r="4.38"/><circle class="cls-2" cx="202.79" cy="213.95" r="4.38"/><circle class="cls-2" cx="122.24" cy="305.64" r="4.38"/><circle class="cls-2" cx="225.61" cy="335.47" r="5.24"/><circle class="cls-2" cx="217.88" cy="310.09" r="5.24"/><circle class="cls-2" cx="197.74" cy="283.72" r="5.24"/><circle class="cls-2" cx="192.69" cy="249.1" r="5.24"/><circle class="cls-2" cx="149.35" cy="286.81" r="5.24"/><circle class="cls-2" cx="289.81" cy="352.78" r="5.24"/><circle class="cls-2" cx="237.06" cy="382.94" r="5.24"/><circle class="cls-2" cx="209.48" cy="427.25" r="5.24"/><circle class="cls-2" cx="362.36" cy="297.46" r="4.38"/><circle class="cls-2" cx="311.71" cy="228.37" r="4.38"/><circle class="cls-2" cx="246.32" cy="203.79" r="4.82"/><circle class="cls-2" cx="228.26" cy="229.29" r="4.82"/><circle class="cls-2" cx="276.82" cy="202.95" r="4.82"/><circle class="cls-2" cx="225.5" cy="185.9" r="4.82"/><circle class="cls-2" cx="420.97" cy="305.5" r="5.49"/><circle class="cls-2" cx="350.63" cy="242.55" r="5.49"/><circle class="cls-2" cx="258.31" cy="192.78" r="5.49"/><circle class="cls-2" cx="331.8" cy="169.21" r="6.92"/><circle class="cls-2" cx="311.09" cy="169.91" r="5.49"/><circle class="cls-2" cx="382.99" cy="157.2" r="5.94"/><circle class="cls-2" cx="362.84" cy="254.66" r="5.99"/><circle class="cls-2" cx="400.33" cy="241.1" r="7.07"/><circle class="cls-2" cx="373.88" cy="268.92" r="5.99"/><circle class="cls-2" cx="322.77" cy="407.12" r="7.13"/><circle class="cls-2" cx="248.01" cy="414.47" r="7.13"/><circle class="cls-2" cx="337.45" cy="335.37" r="6.4"/><circle class="cls-2" cx="274.04" cy="358.39" r="6.4"/><circle class="cls-2" cx="195.16" cy="316.54" r="6.4"/><circle class="cls-2" cx="182.09" cy="300.34" r="7.82"/><circle class="cls-2" cx="171.57" cy="229.29" r="8.21"/><circle class="cls-2" cx="197.09" cy="185.3" r="8.21"/><circle class="cls-2" cx="236.19" cy="360.27" r="6.4"/><circle class="cls-2" cx="198.24" cy="347.47" r="6.4"/><circle class="cls-2" cx="315.47" cy="365.13" r="6.4"/><circle class="cls-2" cx="277.16" cy="382.61" r="6.4"/><circle class="cls-2" cx="260.27" cy="441.3" r="6.4"/><circle class="cls-2" cx="257.32" cy="385.14" r="6.4"/><circle class="cls-2" cx="362.5" cy="376.04" r="7.13"/><circle class="cls-2" cx="362.36" cy="420.51" r="9.05"/><circle class="cls-2" cx="429.87" cy="236.34" r="9.05"/><circle class="cls-2" cx="205.98" cy="147.12" r="9.05"/><circle class="cls-2" cx="250.75" cy="129.61" r="7.68"/><circle class="cls-2" cx="441.21" cy="291.09" r="9.05"/><circle class="cls-2" cx="301.65" cy="255.35" r="2.11"/><circle class="cls-2" cx="318.08" cy="278.92" r="2.11"/><circle class="cls-2" cx="303.25" cy="308.05" r="2.11"/><circle class="cls-2" cx="254.68" cy="305.56" r="2.11"/><circle class="cls-2" cx="297.72" cy="315.16" r="2.11"/><circle class="cls-2" cx="264.83" cy="323.87" r="2.11"/><circle class="cls-2" cx="293.53" cy="241.62" r="2.11"/><circle class="cls-2" cx="294.03" cy="255.35" r="2.11"/><circle class="cls-2" cx="280.06" cy="247.43" r="1.49"/><circle class="cls-2" cx="287.03" cy="256.25" r="1.49"/><circle class="cls-2" cx="274.11" cy="250.65" r="0.77"/><circle class="cls-2" cx="275.72" cy="261.09" r="0.77"/><circle class="cls-2" cx="272.02" cy="264.57" r="0.77"/><circle class="cls-2" cx="260.85" cy="292.26" r="0.77"/><circle class="cls-2" cx="303.76" cy="266.03" r="0.9"/><circle class="cls-2" cx="306.43" cy="289.71" r="0.9"/><circle class="cls-2" cx="272.95" cy="308.18" r="0.9"/><circle class="cls-2" cx="258.23" cy="288.27" r="0.9"/><circle class="cls-2" cx="245.45" cy="285.86" r="0.9"/><circle class="cls-2" cx="247.95" cy="259.48" r="0.9"/><circle class="cls-2" cx="249.16" cy="312.81" r="0.9"/><circle class="cls-2" cx="281.66" cy="319.4" r="0.9"/><circle class="cls-2" cx="308.63" cy="269.24" r="1.13"/><circle class="cls-2" cx="306.8" cy="294.59" r="1.13"/><circle class="cls-2" cx="267.27" cy="308.18" r="1.13"/><circle class="cls-2" cx="256.46" cy="283.32" r="1.13"/><circle class="cls-2" cx="305.91" cy="301.32" r="1.58"/><circle class="cls-2" cx="255.53" cy="277.36" r="1.58"/><circle class="cls-2" cx="239.61" cy="271.85" r="1.58"/><circle class="cls-2" cx="251.09" cy="247.43" r="1.58"/><circle class="cls-2" cx="240.19" cy="309.62" r="1.58"/><circle class="cls-2" cx="274.53" cy="322.29" r="1.58"/><circle class="cls-2" cx="297.89" cy="264.06" r="0.77"/><circle class="cls-2" cx="305.14" cy="284.38" r="0.77"/><circle class="cls-2" cx="288.2" cy="315.53" r="0.77"/><circle class="cls-2" cx="302.59" cy="240.9" r="2.11"/><circle class="cls-2" cx="323.9" cy="294.05" r="2.11"/><circle class="cls-2" cx="291.22" cy="322.85" r="2.11"/><circle class="cls-3" cx="282.56" cy="283.32" r="11.47"/><circle class="cls-2" cx="382.97" cy="330.02" r="9.05"/><circle class="cls-2" cx="342.04" cy="301.8" r="5.24"/><circle class="cls-4" cx="228.29" cy="137.91" r="3.9"/><circle class="cls-4" cx="272.99" cy="128.25" r="3.9"/><circle class="cls-4" cx="246.34" cy="229.89" r="3.33"/><circle class="cls-4" cx="240.87" cy="339.04" r="3.89"/><circle class="cls-4" cx="288.98" cy="231.8" r="3.89"/><circle class="cls-4" cx="156.43" cy="303.67" r="5.24"/><circle class="cls-4" cx="337.19" cy="234.83" r="5.49"/><circle class="cls-4" cx="291.58" cy="196.91" r="5.49"/><circle class="cls-4" cx="412.4" cy="213.53" r="7.53"/><circle class="cls-4" cx="352.21" cy="172.67" r="6.92"/><circle class="cls-4" cx="340.26" cy="135.09" r="5.49"/><circle class="cls-4" cx="372.91" cy="181.14" r="5.94"/><circle class="cls-4" cx="236.08" cy="215.55" r="5.99"/><circle class="cls-4" cx="345.09" cy="197.61" r="6.74"/><circle class="cls-4" cx="412.97" cy="262.82" r="6.74"/><circle class="cls-4" cx="384.23" cy="222.7" r="7.07"/><circle class="cls-4" cx="234.43" cy="157.75" r="7.09"/><circle class="cls-4" cx="291.82" cy="174.75" r="6.15"/><circle class="cls-4" cx="380.06" cy="285.78" r="7.13"/><circle class="cls-4" cx="341.64" cy="317.6" r="7.13"/><circle class="cls-4" cx="297.03" cy="375.66" r="7.13"/><circle class="cls-4" cx="201.19" cy="396.47" r="7.13"/><circle class="cls-4" cx="182.09" cy="336.38" r="7.13"/><circle class="cls-4" cx="192.69" cy="267.01" r="6.4"/><circle class="cls-4" cx="131.6" cy="329.46" r="7.82"/><circle class="cls-4" cx="171.57" cy="278.53" r="7.82"/><circle class="cls-4" cx="134.28" cy="218.1" r="8.21"/><circle class="cls-4" cx="180.87" cy="206.06" r="8.21"/><circle class="cls-4" cx="164.86" cy="176.38" r="8.21"/><circle class="cls-4" cx="216.38" cy="355.51" r="6.4"/><circle class="cls-4" cx="329.04" cy="351.39" r="6.4"/><circle class="cls-4" cx="402.75" cy="389.03" r="7.13"/><circle class="cls-4" cx="431.79" cy="345.27" r="7.13"/><circle class="cls-4" cx="375.78" cy="354.1" r="9.05"/><circle class="cls-4" cx="344.44" cy="394.53" r="9.05"/><circle class="cls-4" cx="272.32" cy="415.89" r="9.05"/><circle class="cls-4" cx="160.99" cy="367.13" r="9.05"/><circle class="cls-4" cx="311.24" cy="438.75" r="9.05"/><circle class="cls-4" cx="256.71" cy="262.68" r="2.51"/><circle class="cls-4" cx="240.81" cy="295.57" r="2.51"/><circle class="cls-4" cx="311.71" cy="242.03" r="2.51"/><circle class="cls-4" cx="270.14" cy="223.19" r="2.78"/><circle class="cls-4" cx="311.43" cy="335.37" r="3.89"/><circle class="cls-4" cx="321.06" cy="286.1" r="2.11"/><circle class="cls-4" cx="286.41" cy="244.01" r="2.11"/><circle class="cls-4" cx="280.98" cy="258.42" r="1.49"/><circle class="cls-4" cx="241.94" cy="279.92" r="1.13"/><circle class="cls-4" cx="248.67" cy="253.51" r="1.13"/><circle class="cls-4" cx="313.66" cy="273.61" r="1.58"/><circle class="cls-4" cx="261.2" cy="307.28" r="1.58"/><circle class="cls-4" cx="278.86" cy="308.18" r="0.77"/><circle class="cls-4" cx="308.97" cy="257.46" r="2.11"/><circle class="cls-4" cx="265.04" cy="248.83" r="3.33"/><circle class="cls-2" cx="215.68" cy="170.37" r="5.46"/><circle class="cls-2" cx="185.73" cy="161.56" r="5.46"/><circle class="cls-2" cx="401.93" cy="343.07" r="5.46"/><circle class="cls-2" cx="386.78" cy="407.94" r="5.46"/><circle class="cls-2" cx="440.41" cy="318.1" r="5.46"/><circle class="cls-2" cx="361.94" cy="145.53" r="3.9"/><circle class="cls-2" cx="340.26" cy="153.89" r="2.11"/><circle class="cls-2" cx="222.63" cy="293.98" r="2.51"/><circle class="cls-2" cx="322.1" cy="244.45" r="2.51"/><circle class="cls-2" cx="289.38" cy="398.74" r="2.51"/><circle class="cls-2" cx="228.74" cy="278.79" r="3.33"/><circle class="cls-2" cx="342.74" cy="258.46" r="3.33"/><circle class="cls-2" cx="324.97" cy="266.33" r="3.33"/><circle class="cls-2" cx="241.38" cy="322.85" r="3.33"/><circle class="cls-2" cx="321.44" cy="386.08" r="3.33"/><circle class="cls-2" cx="208.92" cy="250.7" r="3.33"/><circle class="cls-2" cx="393.05" cy="267.95" r="3.33"/><circle class="cls-2" cx="309.7" cy="211.05" r="3.33"/><circle class="cls-2" cx="223.45" cy="256.56" r="3.89"/><circle class="cls-2" cx="254.58" cy="218.95" r="3.89"/><circle class="cls-2" cx="239.41" cy="174.75" r="3.89"/><circle class="cls-2" cx="318.41" cy="325.4" r="3.89"/><circle class="cls-2" cx="354.08" cy="348.49" r="3.89"/><circle class="cls-2" cx="340.77" cy="216.52" r="3.89"/><circle class="cls-2" cx="369.7" cy="236.73" r="3.89"/><circle class="cls-2" cx="300.04" cy="228.79" r="4.38"/><circle class="cls-2" cx="212.64" cy="199.13" r="4.38"/><circle class="cls-2" cx="358.15" cy="282.07" r="4.38"/><circle class="cls-2" cx="338.06" cy="287.25" r="5.24"/><circle class="cls-2" cx="302.03" cy="344.37" r="5.24"/><circle class="cls-2" cx="217.88" cy="378.68" r="5.24"/><circle class="cls-2" cx="208.66" cy="327.88" r="5.24"/><circle class="cls-2" cx="324.04" cy="229.88" r="4.82"/><circle class="cls-2" cx="195.98" cy="231.36" r="4.82"/><circle class="cls-2" cx="147.62" cy="198.03" r="4.82"/><circle class="cls-2" cx="393.8" cy="193.47" r="6.92"/><circle class="cls-2" cx="325.98" cy="193.47" r="5.49"/><circle class="cls-2" cx="418.45" cy="282.07" r="5.49"/><circle class="cls-2" cx="440.41" cy="262.21" r="5.49"/><circle class="cls-2" cx="364.75" cy="207.79" r="7.07"/><circle class="cls-2" cx="308.79" cy="193.85" r="5.99"/><circle class="cls-2" cx="274.51" cy="182.96" r="7.09"/><circle class="cls-2" cx="295.55" cy="124.48" r="6.15"/><circle class="cls-2" cx="224.9" cy="407.22" r="7.13"/><circle class="cls-2" cx="205.92" cy="297.82" r="6.4"/><circle class="cls-2" cx="167.87" cy="254" r="7.82"/><circle class="cls-2" cx="120.99" cy="277.34" r="7.82"/><circle class="cls-2" cx="285.8" cy="144.08" r="6.34"/><circle class="cls-2" cx="255.68" cy="361.15" r="6.4"/><circle class="cls-2" cx="180.08" cy="383.05" r="6.4"/><circle class="cls-2" cx="143.33" cy="349.56" r="6.4"/><circle class="cls-2" cx="168.57" cy="321.35" r="6.4"/><circle class="cls-2" cx="383.67" cy="307.11" r="7.13"/><circle class="cls-2" cx="297.71" cy="414.02" r="7.66"/><circle class="cls-2" cx="475.45" cy="185.9" r="2.99"/><circle class="cls-2" cx="133.71" cy="380.79" r="2.11"/><circle class="cls-2" cx="116.27" cy="387.01" r="3.89"/><circle class="cls-2" cx="454.99" cy="199.28" r="5.49"/><circle class="cls-2" cx="102.67" cy="404.54" r="5.53"/><circle class="cls-2" cx="436.22" cy="197.61" r="2.99"/></svg>